<svg xmlns="http://www.w3.org/2000/svg" viewBox="0 0 534.81 79.44"><defs><style>.cls-1{fill:#f4e5b3;}</style></defs><title>资源 1</title><g id="图层_2" data-name="图层 2"><g id="图层_1-2" data-name="图层 1"><path class="cls-1" d="M75.72,64.37c2.81,1.4,3.72,2.9,3.72,5,0,4.8-4.14,7.29-15.82,7.29h-6c-8.45,0-10.86-2.24-10.86-10.28V58.4C39.51,63,28.08,69.09,9.78,77.12a3.84,3.84,0,0,1-2.41,2.16L0,65.61c1.82-.25,4.23-.58,7-1.08V17.73l13.42,1.16c-.16,1-.66,1.74-2.57,2.07V62.79l5.22-.91V1.24L37.69,2.57C37.53,3.73,37,4.64,34.63,5V28.66l5-9.11s4,4.22,7.12,8V1.24L61.63,2.82c-.08,1.07-.83,2-3,2.32V30.07a122.62,122.62,0,0,0,9-12.09l11.85,9.85c-.83,1-1.91,1.25-4.15.5a75.32,75.32,0,0,1-16.73,6.05V62.63c0,1.65.58,2.23,2.4,2.23H65c1.24,0,2.32,0,3.14-.08a2.75,2.75,0,0,0,2.24-1.08c1.08-1.74,2.73-6.87,4.14-11.76h.83ZM34.63,59.73c4-.75,8-1.49,12.17-2.32V31.73H34.63Z"/><path class="cls-1" d="M142.32,55.5c0,.83-4.64,2.9-8.78,2.9h-1.91V45.56a7.25,7.25,0,0,1-2,0A86,86,0,0,1,118.46,59c21.46,7,12.18,24.69,2.24,17.07a49.64,49.64,0,0,0-5.3-14.25c-9,8-19.47,13.17-31.73,16.9l-.42-1.16C98.74,69,110.92,57,119.62,37.53l12,6.13V16.32h-32l12.59,5.05c-.33.75-1.16,1.33-2.74,1.25a77.82,77.82,0,0,1-14.16,9.77c3.81.08,8.45.08,13.5,0,1.66-3.15,3.23-6.46,4.72-10l13.26,6.54c-.58,1-1.49,1.33-3.48,1.08C113.24,45.4,100.73,55.25,84.58,61.63L84,60.56a76.26,76.26,0,0,0,21.7-22.79c-3.64,1.25-7.78,2.57-12.17,3.9a6,6,0,0,1-3.07,2L86.9,32.06s4.31-.75,5.38-1.41c2.32-2.07,4.56-9.77,5.39-14.33H84.74L84.08,14h20.63A9.7,9.7,0,0,1,103,12.92,25.79,25.79,0,0,0,98.16.41L98.74,0c18,1.08,17.57,11.18,12.18,14h7.46l5.46-7.54s4.31,3.56,7.79,6.71V8.7l13.75,1.24c-.16,1.16-.83,2-3.06,2.32ZM162.2,2.32c-.08,1.24-.91,2-3,2.32V65.77c0,8-1.74,12.18-14.58,13.34-.33-3.81-.75-6.54-2.16-8.36s-3.14-3-7.7-3.9v-1s9,.49,10.93.49c1.33,0,1.74-.41,1.74-1.4V.91Z"/><path class="cls-1" d="M281.4,63.37c3.73,1.49,4.89,3,4.89,5.22,0,5.72-5,8-23.11,8h-9.94c-11.1,0-15.58-1.9-15.58-11.68V51.61H225.49V56c0,1.24-5.3,4.06-10.44,4.06h-1.82V10.35l13.08,5.06h11.35V.25l15.16,1.57c-.08,1.08-.91,2.07-3,2.4V15.41H262l5.47-6.05,11,8.53a5,5,0,0,1-3.23,1.74V55.25c-.08.75-6.13,3-10.35,3h-2.07V51.61h-13V61.3c0,2.57,1.49,3.32,5,3.32h9.53c2.9,0,5.38-.09,7-.17a5,5,0,0,0,3.4-1.49c1.4-1.82,3.23-6.3,5.46-12.51h.83ZM225.49,17.73V32.22h12.17V17.73Zm12.17,31.56V34.54H225.49V49.29Zm12.18-31.56V32.22h13V17.73Zm13,31.56V34.54h-13V49.29Z"/><path class="cls-1" d="M290.27,33.8h22.11a8.38,8.38,0,0,1-3.14-2.15,10.29,10.29,0,0,0-.17-6.38h-3.56v2.07c0,.91-4.47,3.06-8.7,3.06H295.4v-29l10.52,4.14h16.16l4.47-5,9.69,7.21a5.57,5.57,0,0,1-3.39,1.74V26.34c-.09.58-5.06,2.24-8.2,2.24h-1.74V25.27h-9.37c9.7,2,8.29,7,4.15,8.53h8l5-6.3s5.64,4.31,9,7.29c-.25.91-1.07,1.33-2.23,1.33H290.93Zm29,19.88V67.51c0,6.63-1.41,10.69-11.27,11.44-.08-2.9-.24-5.22-1-6.63-.66-1.24-1.66-2.32-4.47-2.9v-1s4.14.24,5.3.24c1,0,1.24-.49,1.24-1.32V61.63A4.24,4.24,0,0,1,307,62a39.86,39.86,0,0,1-15.74,14.17l-.66-.91c3.39-4.64,5.71-11.68,6.87-17.31a5.19,5.19,0,0,1-1.07.08h-1.33V36.86l10.36,4h16.23L326,36.28,335.08,43a5.79,5.79,0,0,1-2.81,1.49v9.86c-.09.58-5.06,2.24-8.12,2.24h-1.74v-2.9Zm-10.19,0h-4.14v1.41c0,.5-1.41,1.32-3.31,2l7.45,3.14Zm-4.14-10.52v8.2h17.48v-8.2Zm.58-35.29v6.3h17.4V7.87Zm0,15.08h17.4V16.49h-17.4Zm14.74,34.79C342.46,61.22,333,77.87,324.31,71c-.25-4.55-2.48-9.52-4.72-12.84ZM370,52.27c-.58,1-1.49,1.33-3.56,1-10.94,13.58-23.69,21.45-39.68,26.17l-.42-1c12.6-7.54,22.12-18.14,29.5-33.72Zm-36.28-3.06c8.28-7,15.07-16.49,21-27.34l13.58,8.53c-.58.83-1.4,1.16-3.39.75A101.89,101.89,0,0,1,334.25,50.2Zm.49-22.37c8-6.63,14.67-15.74,20.38-25.85l13.09,8.29c-.58.91-1.41,1.16-3.31.74a103.17,103.17,0,0,1-29.58,17.81Z"/><path class="cls-1" d="M443.93,11.93a5.37,5.37,0,0,1-3.14,1.82V73.89c-.17.91-6.22,3.81-11,3.81H427.7V69.92H398v4c0,1.58-5.14,4.64-10.6,4.64h-2.07V4.14l13.42,5.3h28.08L432.75,3ZM398,11.76V37.94H427.7V11.76ZM427.7,67.6V40.26H398V67.6Z"/><path class="cls-1" d="M524,.75s6.79,5.3,10.77,8.86c-.25.91-1.16,1.33-2.32,1.33H476.9V29.57c0,15.41-1.16,36.2-20.79,48.88l-.66-.5c8.61-14.25,9.19-32.47,9.19-48.29V2.9l14,5.72H518Zm-1.16,24.18,10,8.7a5.4,5.4,0,0,1-3.48,1.66c-.91,25-2.48,34.46-7.29,38.52-3.06,2.49-6.62,3.65-12.17,3.65,0-3.65-.33-6.38-1.58-8-1.49-1.74-3.89-3.07-7.54-4v-.91c3.15.25,8,.5,9.86.5a3.64,3.64,0,0,0,2.65-.83c2.4-2,3.57-11.85,4.23-31H505.73c-1.16,18-7.45,37.19-36.61,45.56l-.5-.66c20.3-11.77,23.94-28.91,24.6-44.9H479.31l-.75-2.32h14.66c.09-1.66.09-3.31.09-4.89V13.92l15.57,1.49c-.08,1.08-.75,1.9-2.9,2.24v8.44c0,1.58-.08,3.15-.08,4.81h10.85Z"/><path class="cls-1" d="M185.4,62.81a4.23,4.23,0,0,0,0,.48c0,1.54,1.5,2.66,4.14,2.66s4-1.26,4-3.1a2.9,2.9,0,0,0-1.22-2.36l.22-.35a4.14,4.14,0,0,1,2.22,3.93,4.65,4.65,0,0,1-5,4.81c-3.2,0-5-2.35-5-5.22a3.35,3.35,0,0,1,2.74-3.55,1.09,1.09,0,0,1,.91,1.13c0,.73-.41,1.33-1.69,1.4Z"/><path class="cls-1" d="M181.66,57.85a1.49,1.49,0,1,1,1.39-1.48A1.42,1.42,0,0,1,181.66,57.85Zm12.26-4h.54v5h-.54l-.1-1.14c-1,0-2.5,0-3.46,0H189c-1.1,0-1.74,0-2.62.06L186.22,59h-.41l-1-3.95.17-.24,2.76.07h2.65l3.46,0Z"/><path class="cls-1" d="M193.92,41.79h.54v3.76L189.39,48l.71.78h.12c1,0,2.6,0,3.6,0l.1-1.08h.54v5.08h-.54l-.1-1.15c-1,0-2.57,0-3.46,0h-8.82l-.12,1.26H181l-.74-3.86.15-.24,2.78.07h6.22l-3.6-3.72-.21,1.74h-.52v-4.5h.52l.17,1.69,1.9,2.07,6.15-3.14Z"/><path class="cls-1" d="M192.43,32.69a4.06,4.06,0,0,1,2.32,3.85,4.67,4.67,0,0,1-5,4.94,4.79,4.79,0,0,1-5-4.93,4,4,0,0,1,5-3.87v5.85c2.69-.08,3.79-1.37,3.79-3A2.88,2.88,0,0,0,192.22,33Zm-3.31,3.5c0-.81-.4-1-1.47-1-1.49,0-2.29.66-2.29,1.57s1.07,1.72,3.74,1.79Z"/><path class="cls-1" d="M192.43,22.6a4,4,0,0,1,2.32,3.84,4.67,4.67,0,0,1-5,4.94,4.78,4.78,0,0,1-5-4.92,4.07,4.07,0,0,1,5-3.88v5.86c2.69-.09,3.79-1.38,3.79-3a2.88,2.88,0,0,0-1.31-2.52Zm-3.31,3.49c0-.81-.4-1-1.47-1-1.49,0-2.29.65-2.29,1.57s1.07,1.72,3.74,1.79Z"/><path class="cls-1" d="M192.43,12.5a4,4,0,0,1,2.32,3.84,4.68,4.68,0,0,1-5,4.95,4.79,4.79,0,0,1-5-4.93,3.72,3.72,0,0,1,3.93-4,4.16,4.16,0,0,1,1.05.1v5.86c2.69-.09,3.79-1.38,3.79-3a2.87,2.87,0,0,0-1.31-2.51ZM189.12,16c0-.81-.4-1-1.47-1-1.49,0-2.29.65-2.29,1.57s1.07,1.72,3.74,1.79Z"/></g></g></svg>