<svg xmlns="http://www.w3.org/2000/svg" viewBox="0 0 942.01 79.61"><defs><style>.cls-1{fill:#f4e5b3;}.cls-2{fill:#fff;}</style></defs><title>资源 5</title><g id="图层_2" data-name="图层 2"><g id="图层_1-2" data-name="图层 1"><path class="cls-1" d="M75.72,64.53c2.81,1.41,3.72,2.9,3.72,5,0,4.81-4.14,7.29-15.82,7.29h-6c-8.45,0-10.86-2.23-10.86-10.27V58.57c-7.29,4.64-18.72,10.68-37,18.72a3.8,3.8,0,0,1-2.41,2.15L0,65.78c1.82-.25,4.23-.58,7-1.08V17.89l13.42,1.16c-.16,1-.66,1.74-2.57,2.07V63l5.22-.91V1.41L37.69,2.73C37.53,3.89,37,4.8,34.63,5.14V28.83l5-9.11s4,4.22,7.12,8V1.41L61.63,3c-.08,1.08-.83,2-3,2.32V30.24a124,124,0,0,0,9-12.1L79.53,28c-.83,1-1.91,1.24-4.15.5a75.77,75.77,0,0,1-16.73,6V62.79c0,1.66.58,2.24,2.4,2.24H65c1.24,0,2.32,0,3.14-.08a2.75,2.75,0,0,0,2.24-1.08c1.08-1.74,2.73-6.88,4.14-11.76h.83ZM34.63,59.89c4-.74,8-1.49,12.17-2.32V31.89H34.63Z"/><path class="cls-1" d="M142.32,55.67c0,.83-4.64,2.9-8.78,2.9h-1.91V45.73a8.15,8.15,0,0,1-2,0,87,87,0,0,1-11.18,13.42c21.46,7,12.18,24.68,2.24,17.06A49.75,49.75,0,0,0,115.4,62c-9,8-19.47,13.18-31.73,16.9l-.42-1.16c15.49-8.53,27.67-20.54,36.37-40l12,6.13V16.49h-32l12.59,5.05c-.33.74-1.16,1.32-2.74,1.24a77.35,77.35,0,0,1-14.16,9.78c3.81.08,8.45.08,13.5,0,1.66-3.15,3.23-6.47,4.72-10l13.26,6.55c-.58,1-1.49,1.32-3.48,1.07C113.24,45.56,100.73,55.42,84.58,61.8L84,60.72a76.22,76.22,0,0,0,21.7-22.78c-3.64,1.24-7.78,2.57-12.17,3.89a6,6,0,0,1-3.07,2L86.9,32.22s4.31-.74,5.38-1.4c2.32-2.07,4.56-9.78,5.39-14.33H84.74l-.66-2.32h20.63A10.3,10.3,0,0,1,103,13.09,25.75,25.75,0,0,0,98.16.58l.58-.41c18,1.07,17.57,11.18,12.18,14h7.46l5.46-7.54s4.31,3.56,7.79,6.71V8.86l13.75,1.25c-.16,1.16-.83,2-3.06,2.32ZM162.2,2.49c-.08,1.24-.91,2-3,2.31V65.94c0,8-1.74,12.18-14.58,13.34-.33-3.81-.75-6.55-2.16-8.37s-3.14-3-7.7-3.89V66s9,.5,10.93.5c1.33,0,1.74-.41,1.74-1.41v-64Z"/><path class="cls-1" d="M281.4,63.54c3.73,1.49,4.89,3,4.89,5.22,0,5.71-5,7.95-23.11,7.95h-9.94c-11.1,0-15.58-1.91-15.58-11.68V51.78H225.49v4.39c0,1.24-5.3,4-10.44,4h-1.82V10.52l13.08,5.05h11.35V.41L252.82,2c-.08,1.08-.91,2.07-3,2.4V15.57H262l5.47-6,11,8.53a5.07,5.07,0,0,1-3.23,1.74V55.42c-.08.75-6.13,3-10.35,3h-2.07V51.78h-13v9.69c0,2.57,1.49,3.31,5,3.31h9.53c2.9,0,5.38-.08,7-.16a5,5,0,0,0,3.4-1.5c1.4-1.82,3.23-6.29,5.46-12.5h.83ZM225.49,17.89v14.5h12.17V17.89Zm12.17,31.57V34.71H225.49V49.46Zm12.18-31.57v14.5h13V17.89Zm13,31.57V34.71h-13V49.46Z"/><path class="cls-1" d="M290.27,34h22.11a8.15,8.15,0,0,1-3.14-2.15,10.29,10.29,0,0,0-.17-6.38h-3.56V27.5c0,.91-4.47,3.07-8.7,3.07H295.4v-29l10.52,4.15h16.16l4.47-5L336.24,8a5.52,5.52,0,0,1-3.39,1.74V26.51c-.09.58-5.06,2.24-8.2,2.24h-1.74V25.43h-9.37c9.7,2,8.29,7,4.15,8.53h8l5-6.29s5.64,4.31,9,7.29c-.25.91-1.07,1.32-2.23,1.32H290.93Zm29,19.89V67.68c0,6.63-1.41,10.69-11.27,11.43-.08-2.9-.24-5.22-1-6.62-.66-1.25-1.66-2.32-4.47-2.9v-1s4.14.25,5.3.25c1,0,1.24-.5,1.24-1.33V61.8a4.24,4.24,0,0,1-2.07.33A40,40,0,0,1,291.26,76.3l-.66-.92c3.39-4.63,5.71-11.68,6.87-17.31a5.19,5.19,0,0,1-1.07.08h-1.33V37l10.36,4h16.23L326,36.45l9.11,6.71a5.79,5.79,0,0,1-2.81,1.49v9.86c-.09.58-5.06,2.24-8.12,2.24h-1.74v-2.9Zm-10.19,0h-4.14v1.4c0,.5-1.41,1.33-3.31,2l7.45,3.15Zm-4.14-10.52v8.2h17.48v-8.2ZM305.51,8v6.29h17.4V8Zm0,15.07h17.4V16.65h-17.4Zm14.74,34.8C342.46,61.38,333,78,324.31,71.16c-.25-4.56-2.48-9.53-4.72-12.84ZM370,52.44c-.58,1-1.49,1.32-3.56,1C355.54,67,342.79,74.89,326.8,79.61l-.42-1c12.6-7.54,22.12-18.15,29.5-33.72Zm-36.28-3.07c8.28-7,15.07-16.48,21-27.33l13.58,8.53c-.58.83-1.4,1.16-3.39.74a101.92,101.92,0,0,1-30.74,19.06ZM334.25,27c8-6.63,14.67-15.74,20.38-25.85l13.09,8.28c-.58.92-1.41,1.16-3.31.75A103.17,103.17,0,0,1,334.83,28Z"/><path class="cls-1" d="M443.93,12.09a5.38,5.38,0,0,1-3.14,1.83V74.06c-.17.91-6.22,3.81-11,3.81H427.7V70.08H398v4c0,1.57-5.14,4.64-10.6,4.64h-2.07V4.31l13.42,5.3h28.08l5.88-6.46ZM398,11.93V38.11H427.7V11.93ZM427.7,67.76V40.43H398V67.76Z"/><path class="cls-1" d="M524,.91s6.79,5.3,10.77,8.87c-.25.91-1.16,1.32-2.32,1.32H476.9V29.74c0,15.41-1.16,36.2-20.79,48.88l-.66-.5c8.61-14.25,9.19-32.48,9.19-48.3V3.07l14,5.71H518ZM522.88,25.1l10,8.7a5.5,5.5,0,0,1-3.48,1.66c-.91,25-2.48,34.46-7.29,38.52-3.06,2.48-6.62,3.64-12.17,3.64,0-3.64-.33-6.38-1.58-8-1.49-1.74-3.89-3.07-7.54-4V64.7c3.15.25,8,.5,9.86.5a3.64,3.64,0,0,0,2.65-.83c2.4-2,3.57-11.85,4.23-31H505.73c-1.16,18-7.45,37.2-36.61,45.57l-.5-.67c20.3-11.76,23.94-28.91,24.6-44.9H479.31l-.75-2.31h14.66c.09-1.66.09-3.32.09-4.89V14.08l15.57,1.49c-.08,1.08-.75,1.91-2.9,2.24v8.45c0,1.57-.08,3.15-.08,4.81h10.85Z"/><path class="cls-2" d="M645,25.1c-.41.91-1.16,1.49-3.23,1.33A100.52,100.52,0,0,1,634,35.21L638.74,37c-.25.74-1,1.32-2.57,1.65V75.55c-.17,1-4.64,3.65-9.45,3.65h-2.15V43.57a79.85,79.85,0,0,1-10,6.55l-.67-.75c7.38-8.86,14-22.53,16.9-31.31ZM643.38,7.7c-.42.83-1.17,1.41-3.15,1.16a75.94,75.94,0,0,1-25,16.16l-.58-.83C621,17.56,627.14,7.12,629.79.33Zm40.83,59.15s6.38,5.22,10.11,8.78c-.25.91-1.16,1.33-2.4,1.33h-52l-.67-2.32H658V48.13H643.29l-.66-2.32H658v-23h-16.9l-.66-2.32h36.61l5.47-7.62s6.29,5.14,9.86,8.62c-.17.91-1.08,1.32-2.32,1.32H670.21v23h6.3l5.39-7.46s6.13,5.06,9.69,8.45c-.25.92-1.08,1.33-2.32,1.33H670.21V74.64h8.37ZM649.75,2.15c31.15-2.65,24.44,22.45,11.85,16A29.08,29.08,0,0,0,649.26,2.73Z"/><path class="cls-2" d="M697.05,78.62c4.56-5.72,9.12-15,11.52-24.53l13.92,5.55c-.42,1-1.58,1.66-3.48,1.5a48.24,48.24,0,0,1-21,18.14ZM776.5,9.69a5.87,5.87,0,0,1-3.32,1.82V66.27c0,7.54-1.65,11.6-13.5,12.68-.25-3.65-.66-6.38-1.74-8-1.24-1.74-2.73-2.9-6.63-3.64V66.27s7.38.42,9,.42c1.33,0,1.66-.58,1.66-1.66V46.64h-9.53c-1.49,12-6.38,23.86-21.95,32.06l-.75-.66c6.63-7.21,9.78-15.58,11.27-24.44H698.05l-.67-2.32h6.8V16.82h-5l-.67-2.32h5.64v-13l13.58,1.24c-.16,1-.74,1.74-2.65,2.07v9.7H723V1.57l13.84,1.25c-.17,1.07-.67,1.82-2.74,2.15v8l2.82-4.89s3.15,3.31,5.39,6.13V3.07l12.42,4.3h6.38l5-5.71Zm-61.39,7.13v9H723v-9Zm0,21.2H723V28.17h-7.87Zm0,13.26H723V40.34h-7.87ZM722,54.92c23.94,3.81,14.08,22,4.72,14.58-.33-5-2.82-10.52-5.38-14.16Zm15.08-10.77s2.31,2.32,4.55,4.81a148.83,148.83,0,0,0,.67-15.08V16.65a4.44,4.44,0,0,1-1.08.17h-7.13V49.21Zm24.85.17V27.83h-8.87v6c0,3.48-.08,7-.41,10.52ZM753.05,9.69V25.51h8.87V9.69Z"/><path class="cls-2" d="M809.71,31c-2.07,2.07-4.88,4.81-8.44,8V65c0,8.11-1.58,12.67-13.76,13.91-.24-4.14-.66-7-1.9-9s-2.9-3.23-6.88-4V64.62s7.79.49,9.61.49c1.16,0,1.58-.49,1.58-1.41V48.38l-2.49,1.9a3.51,3.51,0,0,1-2.07,2.57l-5.3-12.76c2.07-.58,5.55-1.65,9.86-3.06V22.62h-8.7l-.66-2.32h9.36V.41l14.41,1.33c-.16,1.24-1,2.07-3.06,2.4V19.63l3.89-6.21s4.89,4.8,7.54,7.87a2,2,0,0,1-2.16,1.33h-9.27v10.6l8.2-3Zm40.93,31s6.38,5.22,10.1,8.79c-.24.91-1.16,1.32-2.31,1.32h-34.3v3.81c0,.75-3.31,3.15-9,3.15h-2.07V35a55.81,55.81,0,0,1-6.87,6.46l-.75-.66C812,29.16,816.26,11.68,817.67.41l13.83,3.9a30.86,30.86,0,0,0-1.65-4l.66-.33c24.27,5.3,11.51,23.44,2.23,14.41A25.87,25.87,0,0,0,832,6.05a4.83,4.83,0,0,1-1.91.49A99.6,99.6,0,0,1,825,17.81l.33.17h19.14l5.38-7.46S856,15.57,859.58,19c-.24.91-1.15,1.33-2.31,1.33h-14.5V34.88h.16L848,27.59s5.71,5,9,8.28c-.25.91-1.08,1.33-2.32,1.33H842.77V52.11h.16L848,44.82s5.71,5,9,8.28c-.25.91-1.08,1.33-2.32,1.33H842.77V69.75H845ZM824.13,20.3V34.88h8V20.3Zm8,16.9h-8V52.11h8Zm-8,32.55h8V54.43h-8Z"/><path class="cls-2" d="M891,42.83c-.33.74-1.08,1.32-2.65,1.66v32.3c-.25.58-5.22,2.32-9.45,2.32h-2.15V51.53a81.34,81.34,0,0,1-12.92,7l-.75-.83c8-6.63,16.16-16.73,22.12-28.5H865.05l-.66-2.32h22c1-2.07,1.91-4.22,2.73-6.38a25.61,25.61,0,0,1-3.72.25h-1.91v-8H864.22l-.58-2.32h19.8V.5L898,1.74c-.08,1.08-.74,1.82-2.9,2.15v6.55h14.5V.5l14.83,1.16c-.08,1.16-.75,1.9-2.9,2.23v6.55h5.22l5.46-7.29s6.22,4.89,9.7,8.28c-.17.91-1.08,1.33-2.32,1.33H921.55V18c0,.91-4.56,2.32-10,2.32h-1.9V12.76h-14.5V16.9l10.19,4.39c-.5,1-1.66,1.66-3.56,1.41-.75,1.49-1.49,2.9-2.32,4.22H925l5.8-7.7s6.62,5.14,10.52,8.7c-.25.91-1.16,1.32-2.41,1.32H898a71.88,71.88,0,0,1-9.69,12.59Zm41.09,3.39s6.21,4.64,9.94,7.87c-.25.92-1.16,1.33-2.32,1.33h-19.3V66.93c0,7.46-1.74,11.35-13.92,12.35-.25-3.4-.58-5.88-1.9-7.54-1.16-1.49-2.65-2.65-6.8-3.4V67.27s8,.49,9.61.49c1.08,0,1.41-.33,1.41-1.16V55.42H889.9l-.66-2.32h19.55v-9l8.2.66a47.61,47.61,0,0,0,4.56-6.29H897.86l-.58-2H921.8l5.46-5.55,9.7,8.2c-.75.75-1.66.91-3.32,1.08a94.51,94.51,0,0,1-10.85,5h.33c-.16,1.24-1,1.82-2.73,2.15V53.1h6.21Z"/><path class="cls-1" d="M185.4,63a4.05,4.05,0,0,0,0,.48c0,1.53,1.5,2.65,4.14,2.65s4-1.25,4-3.1a2.9,2.9,0,0,0-1.22-2.36l.22-.34a4.14,4.14,0,0,1,2.22,3.93,4.65,4.65,0,0,1-5,4.8c-3.2,0-5-2.34-5-5.22a3.37,3.37,0,0,1,2.74-3.55,1.1,1.1,0,0,1,.91,1.14c0,.72-.41,1.33-1.69,1.4Z"/><path class="cls-1" d="M181.66,58a1.49,1.49,0,1,1,1.39-1.48A1.42,1.42,0,0,1,181.66,58Zm12.26-4h.54v5h-.54l-.1-1.14-3.46,0H189c-1.1,0-1.74,0-2.62,0l-.14,1.29h-.41l-1-3.94L185,55l2.76.07h2.65c1,0,2.46,0,3.46,0Z"/><path class="cls-1" d="M193.92,42h.54v3.75l-5.07,2.45.71.77h.12c1,0,2.6,0,3.6,0l.1-1.09h.54V52.9h-.54l-.1-1.16-3.46,0h-8.82L181.42,53H181l-.74-3.86.15-.24,2.78.06h6.22l-3.6-3.72L185.57,47h-.52V42.46h.52l.17,1.69,1.9,2.06,6.15-3.13Z"/><path class="cls-1" d="M192.43,32.86a4,4,0,0,1,2.32,3.84,4.68,4.68,0,0,1-5,4.95,4.79,4.79,0,0,1-5-4.93,3.72,3.72,0,0,1,3.93-4,4.16,4.16,0,0,1,1.05.1V38.7c2.69-.09,3.79-1.38,3.79-3a2.86,2.86,0,0,0-1.31-2.51Zm-3.31,3.5c0-.81-.4-1-1.47-1-1.49,0-2.29.66-2.29,1.57s1.07,1.72,3.74,1.79Z"/><path class="cls-1" d="M192.43,22.76a4.06,4.06,0,0,1,2.32,3.84,4.67,4.67,0,0,1-5,4.95,4.79,4.79,0,0,1-5-4.93,4,4,0,0,1,5-3.87V28.6c2.69-.08,3.79-1.38,3.79-3a2.87,2.87,0,0,0-1.31-2.51Zm-3.31,3.5c0-.81-.4-1-1.47-1-1.49,0-2.29.66-2.29,1.57s1.07,1.72,3.74,1.79Z"/><path class="cls-1" d="M192.43,12.67a4,4,0,0,1,2.32,3.84,4.67,4.67,0,0,1-5,4.94,4.79,4.79,0,0,1-5-4.93,4,4,0,0,1,5-3.87V18.5c2.69-.08,3.79-1.37,3.79-3A2.88,2.88,0,0,0,192.22,13Zm-3.31,3.49c0-.81-.4-1-1.47-1-1.49,0-2.29.65-2.29,1.56s1.07,1.73,3.74,1.79Z"/></g></g></svg>